<svg width="768" height="773" viewBox="0 0 768 773" fill="none" xmlns="http://www.w3.org/2000/svg">
<path d="M0 0.384644H768V772.323H758.154C750.541 772.323 744.369 766.152 744.369 758.539V609.328C744.369 601.715 738.198 595.543 730.585 595.543H578.03C570.416 595.543 564.245 589.372 564.245 581.759V521.776C564.245 514.163 558.073 507.991 550.46 507.991H390.927C383.314 507.991 377.143 514.163 377.143 521.776V581.759C377.143 589.372 370.971 595.543 363.358 595.543H224.397C216.784 595.543 210.612 589.372 210.612 581.759V521.776C210.612 514.163 204.441 507.991 196.828 507.991H35.4462C27.8331 507.991 21.6615 514.163 21.6615 521.776V669.166C21.6615 676.78 15.49 682.951 7.87692 682.951H0V0.384644Z" fill="#5367B8"/>
</svg>
